<svg height="22" viewBox="0 0 22 22" width="22" xmlns="http://www.w3.org/2000/svg"><g fill="red" fill-rule="evenodd"><path class="svg__path-not-fill" d="m10.9986.29312839c-2.15293718.00460738-4.20021511.65260014-5.91840937 1.79538427-1.71818966 1.14278107-3.1072975 2.7803509-3.94390318 4.76411723-.55974004 1.32654768-.84647211 2.75211302-.8431292 4.19184221.00633804 2.9626061 1.21290085 5.6421389 3.15851846 7.5794559 1.94562397 1.9373233 4.63030771 3.1324261 7.59287779 3.1261154 2.9625493-.0063779 5.6420567-1.2129558 7.579352-3.1585662 1.9373091-1.9456242 3.1323959-4.6302916 3.1260851-7.5928254-.0063357-2.96258963-1.212888-5.64211392-3.1584926-7.57941871-1.9456253-1.93732535-4.6303181-3.13241549-7.592899-3.1261047z" stroke="#fff" stroke-width=".5"/><g fill="#fff"><path d="m12.1440259 6.41386275c-.6090981.28211764-1.5529412.28211764-2.15686276 0-.69968628-.32525491-.69968628-.84807844 0-1.17419608.60909806-.2829804 1.55294116-.2829804 2.15686276 0 .6996863.32439215.6996863.84894117 0 1.17419608zm-1.0792941-3.76588236-7.62839219 3.19819608 7.62925489 4.40776473 7.6637647-4.38705885z"/><path d="m4.76536392 13.0221192c.02881569.014753.05797647.0314902.08756863.0503843.46769412.2985098.85498039 1.0050981.8627451 1.5788236.00733333.5381804-.32620392.7673254-.75352157.5466353-.02881569-.0148393-.05806275-.0315765-.08756863-.0505569-.46769412-.2993726-.85592941-1.0059608-.8627451-1.5796863-.00733333-.5373176.32620392-.7656863.75352157-.5456zm1.94850981-1.0513412c.46760784.2993726.85584313 1.0068236.86274509 1.5796863.00698824.5728628-.37184313.7945882-.83945098.4960784-.46752157-.2985098-.85498039-1.0059607-.86274509-1.5788235-.00862746-.5745882.37192941-.7963137.83945098-.4969412zm1.0197647-.605647c-.00603921-.5014275.28073726-.735749.66595294-.5857177.05659608.0216549.1150902.0511608.17522353.0896392.46769412.2993726.85592941 1.0059608.8627451 1.5796863.00612549.5021177-.28332549.7353177-.6691451.5849412-.05659608-.0215686-.11526274-.0511608-.17548235-.0897255-.46760784-.2993725-.85489412-1.0068235-.8627451-1.5796863zm-4.64501961 3.9021961 7.64996078 4.4172549v-8.8129412l-7.64996078-4.41984315z"/><path d="m17.9235958 9.24883451c.0001579.02778039-.0012225.05581961-.0027754.0839451-.0004314.00828235-.0001726.01647843-.0007765.02476078-.0014666.02139608-.0044.04287843-.0069019.06436079-.0017255.01570196-.0027608.03131764-.005004.0470196-.000949.00638432-.0024156.01276863-.0034509.01915295-.0395138.25528627-.1405412.51428237-.2814275.73643917-.1429569.226902-.3270667.4156706-.5287765.5229098-.4607058.2450197-.8377255-.0250196-.8420392-.6039215l.0000863-.0000863c-.0000863-.0006039-.0000863-.0011216-.0000863-.0016392-.0032784-.4343059.2042118-.91951374.5022039-1.23821178.1001647-.10818823.2105961-.19756863.3268942-.25951372.4598431-.24501961.8377255.0250196.8420538.60392156zm-.8541323 6.23850979c-.4607059.2450196-.8420392-.0250196-.8420392-.6039216 0-.5823529.3640784-1.2492549.8247843-1.4942745s.8368628.0250196.8420392.6039216c.0051765.578902-.3640784 1.2492549-.8247843 1.4942745zm-1.7625882-1.4666667c-.1158667.0613412-.2263843.0901569-.3270667.0899023-.3014431.0012036-.5152313-.2588277-.5184235-.6938238h.003451c-.0043137-.578902.3614902-1.2483922.8221961-1.4934118.1158666-.0616.226298-.0905019.3269803-.0902479.3015295-.0012893.5152314.2591734.5185099.6941695.0043137.5789019-.3649412 1.2492549-.8256471 1.4934117zm-1.0180392-2.8832941c.0043137.578902-.3658039 1.2492549-.8256471 1.4942745-.1738431.0926589-.3356941.1113804-.4701961.0679844-.2243137-.0693648-.3737411-.3107608-.3770196-.6736314l.003451.0008627c-.0043137-.5789019.3614902-1.2501176.8221961-1.4951372.1452-.0772157.2821176-.1030981.4016941-.0843765.2624471.0380471.442502.2901412.4455216.6891608h-.0000863c0 .0002588.0000863.0005176.0000863.0008627zm-.8506667 6.2341961c-.1741882.0926588-.3362118.1113804-.4708863.0679843-.2244-.0693647-.3736549-.3107608-.3763294-.6736314l.003451.0008628c-.0043137-.578902.3623529-1.2501177.8221961-1.4951373.1737568-.0926588.3357804-.1113804.4704549-.0679843.2244863.0693647.374.3107608.3767608.6736314.0043137.578902-.3649412 1.2492549-.8256471 1.4942745zm-2.0101961-6.5197647v8.8112157l7.6128628-4.3956863v-8.77325489z"/></g></g></svg>